<?xml version="1.0" standalone="no" ?>
<!DOCTYPE svg PUBLIC "-//W3C//DTD SVG 20010904//EN"
  "http://www.w3.org/TR/2001/REC-SVG-20010904/DTD/svg10.dtd">
<svg
  version="1.0"
  xmlns="http://www.w3.org/2000/svg"
  width="768.000000pt"
  height="768.000000pt"
  viewBox="0 0 768.000000 768.000000"
  preserveAspectRatio="xMidYMid meet"
>

<g
    transform="translate(0.000000,768.000000) scale(0.100000,-0.100000)"
    fill="#000000"
    stroke="none"
  >
<path
      fill="#06a3da"
      d="M3585 7274 c-192 -30 -356 -83 -530 -171 -161 -82 -275 -164 -419
-303 -335 -323 -516 -753 -517 -1225 0 -216 22 -359 83 -545 145 -445 457
-802 883 -1011 479 -235 1029 -235 1510 0 526 258 871 736 956 1326 17 120 12
376 -10 505 -62 360 -215 662 -465 918 -273 280 -602 449 -989 506 -129 20
-378 19 -502 0z"
    />
<path
      fill="#06a3da"
      d="M3475 3444 c-22 -2 -98 -9 -170 -15 -760 -63 -1416 -296 -1870 -662
-106 -86 -275 -261 -354 -367 -163 -220 -270 -477 -301 -722 -6 -49 -10 -330
-10 -685 l0 -603 3070 0 3070 0 0 608 c0 656 -4 715 -55 894 -108 377 -394
742 -785 1003 -429 286 -952 455 -1645 531 -131 15 -844 28 -950 18z"
    />
</g>
</svg>
